<svg class="svg-icon" style="width: 1em;height: 1em;vertical-align: middle;fill: currentColor;overflow: hidden;" viewBox="0 0 1024 1024" version="1.1" xmlns="http://www.w3.org/2000/svg"><path d="M462.36 135.91L232.69 320.22H110.76c-19.89 0-36 16.12-36 35.97v297.73c0 19.87 16.11 35.98 36 35.98h115.66l236.01 188.33a36.055 36.055 0 0 0 22.45 7.87c19.83 0 35.95-16.1 35.97-35.95V163.97c0-8.19-2.79-16.14-7.91-22.53-12.43-15.48-35.07-17.97-50.58-5.53z m211.43 192.77l-0.55-0.61c-13.26-13.71-35.55-14.48-49.8-1.72-14.22 12.77-15.02 34.24-1.78 47.95 39.6 41.87 61.5 96.5 61.4 153.13 0.1 61.15-25.43 119.75-70.79 162.53-13.41 13.04-13.59 33.98-0.46 47.25 13.44 13.56 35.72 14.08 49.8 1.16 58.87-55.54 91.99-131.59 91.9-210.95 0.09-73.49-28.32-144.39-79.72-198.74z m130.35-153.47c-13.29-13.31-35.18-13.95-49.29-1.43-14.29 12.7-15.19 34.17-2.02 47.94 80.42 82.19 125.96 190.49 125.96 305.73 0.16 116.08-46.81 227.62-130.95 310.75-0.16 0.16-0.33 0.32-0.51 0.5-13.41 13.56-12.86 35.03 1.23 47.95 14.05 12.93 36.37 12.41 49.78-1.16 96.13-95.22 150.9-222.51 150.9-358.03 0-132.77-52.49-257.61-145.1-352.25z"  /></svg>