<svg class="svg-icon" style="width: 1em;height: 1em;vertical-align: middle;fill: currentColor;overflow: hidden;" viewBox="0 0 1024 1024" version="1.1" xmlns="http://www.w3.org/2000/svg"><path d="M512 298.666667c46.933333 0 85.333333-38.4 85.333333-85.333334 0-17.066667-4.266667-29.866667-12.8-42.666666L512 42.666667l-72.533333 128c-8.533333 12.8-12.8 25.6-12.8 42.666666 0 46.933333 38.4 85.333333 85.333333 85.333334m196.266667 426.666666l-46.933334-46.933333-42.666666 46.933333c-59.733333 55.466667-149.333333 55.466667-209.066667 0l-46.933333-46.933333L315.733333 725.333333c-51.2 51.2-128 55.466667-187.733333 17.066667V938.666667c0 25.6 17.066667 42.666667 42.666667 42.666666h682.666666c25.6 0 42.666667-17.066667 42.666667-42.666666v-196.266667c-59.733333 38.4-136.533333 34.133333-187.733333-17.066667m59.733333-298.666666h-213.333333V341.333333h-85.333334v85.333334H256c-72.533333 0-128 55.466667-128 128v64c0 46.933333 38.4 85.333333 85.333333 85.333333 21.333333 0 42.666667-8.533333 59.733334-25.6l93.866666-89.6 89.6 89.6c34.133333 29.866667 85.333333 29.866667 119.466667 0l89.6-89.6 93.866667 89.6c17.066667 17.066667 38.4 25.6 59.733333 25.6 46.933333 0 85.333333-38.4 85.333333-85.333333V554.666667c-8.533333-72.533333-64-128-136.533333-128z"  /></svg>