<svg class="svg-icon" style="width: 1em;height: 1em;vertical-align: middle;fill: currentColor;overflow: hidden;" viewBox="0 0 1024 1024" version="1.1" xmlns="http://www.w3.org/2000/svg"><path d="M981.333333 712.533333c0-85.333333-115.2-149.333333-307.2-174.933333-8.533333 0-21.333333-4.266667-21.333333-34.133333C652.8 384 640 0 512 0S371.2 384 371.2 503.466667c0 29.866667-12.8 34.133333-21.333333 34.133333-192 25.6-307.2 89.6-307.2 174.933333 0 93.866667 136.533333 153.6 302.933333 174.933334C358.4 964.266667 426.666667 1024 512 1024s153.6-59.733333 166.4-140.8c166.4-21.333333 302.933333-76.8 302.933333-170.666667zM512 938.666667c-34.133333 0-59.733333-17.066667-76.8-46.933334 25.6 0 51.2 4.266667 76.8 4.266667s51.2 0 76.8-4.266667c-17.066667 29.866667-42.666667 46.933333-76.8 46.933334z m0-128c-247.466667 0-384-72.533333-384-98.133334 0-17.066667 55.466667-68.266667 234.666667-89.6 59.733333-8.533333 93.866667-55.466667 93.866666-119.466666 0-221.866667 29.866667-358.4 55.466667-405.333334 21.333333 46.933333 55.466667 183.466667 55.466667 405.333334 0 64 34.133333 110.933333 93.866666 119.466666 174.933333 21.333333 234.666667 76.8 234.666667 89.6 0 25.6-136.533333 98.133333-384 98.133334z"  /></svg>