<svg xmlns="http://www.w3.org/2000/svg" width="30" height="30" viewBox="0 0 30 30" version="1.1">
    <path d="M 7 5 C 5.892 5 5 5.892 5 7 L 5 23 C 5 24.108 5.892 25 7 25 L 23 25 C 24.108 25 25 24.108 25 23 L 25 7 C 25 5.892 24.108 5 23 5 L 7 5 z M 7.8339844 12.023438 L 9.0917969 12.023438 L 8.7558594 14.373047 L 10.681641 14.373047 L 11.017578 12.023438 L 12.265625 12.023438 L 11.431641 17.976562 L 10.183594 17.976562 L 10.544922 15.369141 L 8.6171875 15.369141 L 8.2480469 17.976562 L 7 17.976562 L 7.8339844 12.023438 z M 13.513672 12.023438 L 15.044922 12.023438 C 15.853619 12.023437 16.502722 12.188826 16.990234 12.521484 C 17.477747 12.848404 17.720703 13.434232 17.720703 14.277344 C 17.720703 14.965597 17.608448 15.588193 17.384766 16.144531 C 17.166819 16.695131 16.80953 17.140124 16.310547 17.478516 C 15.817299 17.811174 15.170273 17.976562 14.373047 17.976562 L 12.679688 17.976562 L 13.513672 12.023438 z M 19.025391 12.023438 L 20.857422 12.023438 C 21.562882 12.023437 22.097652 12.158166 22.458984 12.427734 C 22.820317 12.697299 23 13.081095 23 13.580078 C 23 13.987295 22.893852 14.352641 22.681641 14.673828 C 22.475165 14.989277 22.117877 15.244448 21.607422 15.439453 L 22.75 17.976562 L 21.373047 17.976562 L 20.435547 15.646484 L 19.765625 15.646484 L 19.447266 17.976562 L 18.191406 17.976562 L 19.025391 12.023438 z M 20.142578 12.935547 L 19.894531 14.75 L 20.564453 14.75 C 20.965934 14.75 21.255795 14.641775 21.433594 14.423828 C 21.611392 14.200143 21.701172 13.934837 21.701172 13.630859 C 21.701172 13.384237 21.623607 13.208583 21.46875 13.099609 C 21.313893 12.990633 21.066907 12.935547 20.728516 12.935547 L 20.142578 12.935547 z M 14.632812 12.951172 L 14.064453 17.048828 L 14.564453 17.048828 C 15.2355 17.048828 15.713227 16.771303 16 16.220703 C 16.286772 15.670099 16.431641 15.022948 16.431641 14.277344 C 16.431641 13.766886 16.315355 13.419861 16.085938 13.236328 C 15.862256 13.047061 15.543811 12.951172 15.130859 12.951172 L 14.632812 12.951172 z" />
</svg>
