<svg class="svg-icon" style="width: 1em; height: 1em;vertical-align: middle;fill: currentColor;overflow: hidden;" viewBox="0 0 1024 1024" version="1.1" xmlns="http://www.w3.org/2000/svg"><path d="M664.746667 544A170.666667 170.666667 0 0 0 682.666667 469.333333V256a170.666667 170.666667 0 0 0-337.92-32M810.666667 469.333333a42.666667 42.666667 0 0 0-85.333334 0 207.36 207.36 0 0 1-29.44 105.813334L758.613333 640A298.666667 298.666667 0 0 0 810.666667 469.333333zM512 640h6.826667L341.333333 462.08V469.333333a170.666667 170.666667 0 0 0 170.666667 170.666667zM883.626667 823.04l-682.666667-682.666667a42.666667 42.666667 0 0 0-60.586667 60.586667l682.666667 682.666667a42.666667 42.666667 0 0 0 60.586667 0 42.666667 42.666667 0 0 0 0-60.586667z"  /><path d="M640 853.333333h-85.333333v-88.746666a298.666667 298.666667 0 0 0 70.4-18.773334l-68.266667-68.266666A194.986667 194.986667 0 0 1 512 682.666667a213.333333 213.333333 0 0 1-213.333333-213.333334 42.666667 42.666667 0 0 0-85.333334 0 298.666667 298.666667 0 0 0 256 295.253334V853.333333H384a42.666667 42.666667 0 0 0 0 85.333334h256a42.666667 42.666667 0 0 0 0-85.333334z"  /></svg>