<svg xmlns="http://www.w3.org/2000/svg" xmlns:xlink="http://www.w3.org/1999/xlink" version="1.1" width="256" height="256" viewBox="0 0 256 256" xml:space="preserve">

<defs>
</defs>
<g style="stroke: none; stroke-width: 0; stroke-dasharray: none; stroke-linecap: butt; stroke-linejoin: miter; stroke-miterlimit: 10; fill: none; fill-rule: nonzero; opacity: 1;" transform="translate(1.4065934065934016 1.4065934065934016) scale(2.81 2.81)" >
	<path d="M 70.372 53.956 c -0.058 0 -0.116 -0.003 -0.174 -0.008 c -0.529 -0.046 -1.018 -0.3 -1.358 -0.707 L 54.78 36.486 c -0.71 -0.846 -0.6 -2.108 0.247 -2.818 c 0.844 -0.709 2.107 -0.599 2.817 0.247 l 12.773 15.224 l 10.501 -8.812 c 0.957 -0.803 1.082 -2.234 0.279 -3.191 L 66.764 19.695 c -0.526 -0.629 -1.358 -0.92 -2.163 -0.77 c -1.091 0.209 -2.132 -0.504 -2.34 -1.589 c -0.207 -1.085 0.505 -2.132 1.59 -2.339 c 2.229 -0.426 4.521 0.39 5.978 2.127 l 14.635 17.44 c 2.221 2.646 1.873 6.606 -0.773 8.827 L 71.657 53.488 C 71.296 53.792 70.841 53.956 70.372 53.956 z" style="stroke: none; stroke-width: 1; stroke-dasharray: none; stroke-linecap: butt; stroke-linejoin: miter; stroke-miterlimit: 10; fill: rgba(255,255,255,1); fill-rule: nonzero; opacity: 1;" transform=" matrix(1 0 0 1 0 0) " stroke-linecap="round" />
	<path d="M 55.072 66.794 c -0.57 0 -1.138 -0.243 -1.533 -0.715 l -8.072 -9.62 c -0.71 -0.846 -0.6 -2.107 0.247 -2.817 c 0.845 -0.709 2.108 -0.6 2.818 0.247 l 6.786 8.088 L 67.555 51.71 L 54.78 36.486 c -0.71 -0.846 -0.6 -2.108 0.247 -2.818 c 0.844 -0.709 2.107 -0.599 2.817 0.247 l 14.06 16.756 c 0.341 0.406 0.507 0.931 0.46 1.46 c -0.046 0.528 -0.301 1.017 -0.707 1.357 L 56.356 66.326 C 55.982 66.641 55.526 66.794 55.072 66.794 z" style="stroke: none; stroke-width: 1; stroke-dasharray: none; stroke-linecap: butt; stroke-linejoin: miter; stroke-miterlimit: 10; fill: rgba(255,255,255,1); fill-rule: nonzero; opacity: 1;" transform=" matrix(1 0 0 1 0 0) " stroke-linecap="round" />
	<path d="M 31.781 86.339 c -0.571 0 -1.137 -0.243 -1.533 -0.715 c -0.71 -0.846 -0.6 -2.107 0.247 -2.817 l 21.76 -18.259 l -6.787 -8.089 c -0.71 -0.846 -0.6 -2.107 0.247 -2.817 c 0.845 -0.709 2.108 -0.6 2.818 0.247 l 8.072 9.62 c 0.71 0.846 0.6 2.107 -0.247 2.817 L 33.065 85.871 C 32.691 86.186 32.234 86.339 31.781 86.339 z" style="stroke: none; stroke-width: 1; stroke-dasharray: none; stroke-linecap: butt; stroke-linejoin: miter; stroke-miterlimit: 10; fill: rgba(255,255,255,1); fill-rule: nonzero; opacity: 1;" transform=" matrix(1 0 0 1 0 0) " stroke-linecap="round" />
	<path d="M 57.198 35.303 c -0.289 0 -0.578 -0.063 -0.846 -0.188 l -19.828 -9.246 c -1.001 -0.467 -1.434 -1.657 -0.967 -2.658 c 0.466 -1.001 1.656 -1.435 2.658 -0.967 l 18.016 8.401 l 5.793 -12.424 c 0.256 -0.549 0.283 -1.164 0.076 -1.732 s -0.623 -1.022 -1.172 -1.278 L 40.293 5.589 c -0.739 -0.344 -1.61 -0.264 -2.275 0.209 c -0.897 0.641 -2.148 0.433 -2.789 -0.468 c -0.641 -0.899 -0.432 -2.148 0.468 -2.789 c 1.836 -1.309 4.244 -1.531 6.288 -0.578 l 20.634 9.622 c 1.518 0.707 2.668 1.963 3.24 3.535 c 0.572 1.573 0.498 3.274 -0.21 4.791 l -6.638 14.236 c -0.224 0.48 -0.63 0.853 -1.128 1.034 C 57.661 35.263 57.43 35.303 57.198 35.303 z" style="stroke: none; stroke-width: 1; stroke-dasharray: none; stroke-linecap: butt; stroke-linejoin: miter; stroke-miterlimit: 10; fill: rgba(255,255,255,1); fill-rule: nonzero; opacity: 1;" transform=" matrix(1 0 0 1 0 0) " stroke-linecap="round" />
	<path d="M 48.756 53.404 c -0.283 0 -0.571 -0.06 -0.845 -0.188 l -11.274 -5.258 c -1.001 -0.467 -1.434 -1.656 -0.967 -2.658 c 0.467 -1.001 1.655 -1.435 2.658 -0.967 l 9.462 4.412 L 54.54 34.27 l -18.016 -8.401 c -1.001 -0.467 -1.434 -1.657 -0.967 -2.658 c 0.466 -1.001 1.656 -1.435 2.658 -0.967 l 19.829 9.246 c 0.48 0.224 0.853 0.63 1.033 1.128 c 0.182 0.499 0.158 1.049 -0.066 1.529 L 50.569 52.25 C 50.23 52.978 49.509 53.404 48.756 53.404 z" style="stroke: none; stroke-width: 1; stroke-dasharray: none; stroke-linecap: butt; stroke-linejoin: miter; stroke-miterlimit: 10; fill: rgba(255,255,255,1); fill-rule: nonzero; opacity: 1;" transform=" matrix(1 0 0 1 0 0) " stroke-linecap="round" />
	<path d="M 21.697 89.995 c -2.495 0 -5.026 -0.53 -7.432 -1.652 c -1.001 -0.467 -1.434 -1.656 -0.967 -2.657 c 0.467 -1.002 1.655 -1.437 2.658 -0.968 c 6.82 3.181 14.958 0.219 18.139 -6.603 l 12.004 -25.743 l -9.462 -4.413 c -1.001 -0.467 -1.434 -1.656 -0.967 -2.658 c 0.467 -1.001 1.655 -1.435 2.658 -0.967 l 11.276 5.258 c 0.48 0.224 0.853 0.63 1.033 1.129 c 0.182 0.498 0.158 1.048 -0.066 1.529 L 37.72 79.806 C 34.729 86.22 28.347 89.995 21.697 89.995 z" style="stroke: none; stroke-width: 1; stroke-dasharray: none; stroke-linecap: butt; stroke-linejoin: miter; stroke-miterlimit: 10; fill: rgba(255,255,255,1); fill-rule: nonzero; opacity: 1;" transform=" matrix(1 0 0 1 0 0) " stroke-linecap="round" />
	<path d="M 37.37 23.973 H 6.072 c -1.104 0 -2 -0.896 -2 -2 V 6.174 C 4.072 2.77 6.841 0 10.246 0 h 22.95 C 36.6 0 39.37 2.77 39.37 6.174 v 15.799 C 39.37 23.078 38.474 23.973 37.37 23.973 z M 8.072 19.973 H 35.37 V 6.174 C 35.37 4.975 34.395 4 33.196 4 h -22.95 C 9.047 4 8.072 4.975 8.072 6.174 V 19.973 z" style="stroke: none; stroke-width: 1; stroke-dasharray: none; stroke-linecap: butt; stroke-linejoin: miter; stroke-miterlimit: 10; fill: rgba(255,255,255,1); fill-rule: nonzero; opacity: 1;" transform=" matrix(1 0 0 1 0 0) " stroke-linecap="round" />
	<path d="M 37.37 43.946 H 6.072 c -1.104 0 -2 -0.896 -2 -2 V 21.973 c 0 -1.104 0.896 -2 2 -2 H 37.37 c 1.104 0 2 0.896 2 2 v 19.973 C 39.37 43.05 38.474 43.946 37.37 43.946 z M 8.072 39.946 H 35.37 V 23.973 H 8.072 V 39.946 z" style="stroke: none; stroke-width: 1; stroke-dasharray: none; stroke-linecap: butt; stroke-linejoin: miter; stroke-miterlimit: 10; fill: rgba(255,255,255,1); fill-rule: nonzero; opacity: 1;" transform=" matrix(1 0 0 1 0 0) " stroke-linecap="round" />
	<path d="M 37.37 63.919 H 6.072 c -1.104 0 -2 -0.896 -2 -2 V 41.946 c 0 -1.104 0.896 -2 2 -2 H 37.37 c 1.104 0 2 0.896 2 2 v 19.973 C 39.37 63.023 38.474 63.919 37.37 63.919 z M 8.072 59.919 H 35.37 V 43.946 H 8.072 V 59.919 z" style="stroke: none; stroke-width: 1; stroke-dasharray: none; stroke-linecap: butt; stroke-linejoin: miter; stroke-miterlimit: 10; fill: rgba(255,255,255,1); fill-rule: nonzero; opacity: 1;" transform=" matrix(1 0 0 1 0 0) " stroke-linecap="round" />
	<path d="M 21.721 90 c -9.731 0 -17.649 -7.917 -17.649 -17.648 V 61.919 c 0 -1.104 0.896 -2 2 -2 H 37.37 c 1.104 0 2 0.896 2 2 v 10.433 C 39.37 82.083 31.452 90 21.721 90 z M 8.072 63.919 v 8.433 C 8.072 79.877 14.195 86 21.721 86 S 35.37 79.877 35.37 72.352 v -8.433 H 8.072 z" style="stroke: none; stroke-width: 1; stroke-dasharray: none; stroke-linecap: butt; stroke-linejoin: miter; stroke-miterlimit: 10; fill: rgba(255,255,255,1); fill-rule: nonzero; opacity: 1;" transform=" matrix(1 0 0 1 0 0) " stroke-linecap="round" />
	<circle cx="21.723" cy="76.413" r="3.563" style="stroke: none; stroke-width: 1; stroke-dasharray: none; stroke-linecap: butt; stroke-linejoin: miter; stroke-miterlimit: 10; fill: rgba(255,255,255,1); fill-rule: nonzero; opacity: 1;" transform="  matrix(1 0 0 1 0 0) "/>
</g>
</svg>