<svg class="svg-icon" style="width: 1em; height: 1em;vertical-align: middle;fill: currentColor;overflow: hidden;" viewBox="0 0 1024 1024" version="1.1" xmlns="http://www.w3.org/2000/svg"><path d="M621.110023 141.28277c-10.939143-10.93505-26.768667-15.935947-40.191374-6.538927-12.669554 8.868995-12.56313 19.051915-12.56313 29.986965l0 158.582785c-224.199225 0-437.464423 185.92041-437.464423 410.119635 0 60.151985 27.340695 136.708592 54.682413 164.048263 32.810267-169.514765 202.328102-300.755832 382.78201-300.755832l0 160.538323c0 5.469572-0.460488 25.329898 10.044774 31.383778 16.101723 9.278317 28.231995-0.530073 33.701566-5.999644l270.0239-291.62487c10.93505-10.939143 14.326287-22.706141 14.326287-31.006178 0-12.707416-9.071609-25.953092-14.541181-31.422663L621.110023 141.28277z"  /></svg>