<svg class="svg-icon" style="width: 1.0400390625em; height: 1em;vertical-align: middle;fill: currentColor;overflow: hidden;" viewBox="0 0 1065 1024" version="1.1" xmlns="http://www.w3.org/2000/svg"><path d="M984.435242 325.791475l-259.869377-18.776131c-5.430557-0.436459-10.206426-3.718295-12.162098-8.955803L613.403111 55.707279C599.721799 22.301377 568.909471 1.56118 532.859635 1.56118c-36.033049 0-66.643934 20.731803-80.543475 54.364328l-99.210492 242.570492c-2.182295 5.019279-6.731541 8.519344-12.162098 8.955803L81.502258 326.227934c-35.168525 1.964066-65.124721 25.104787-76.632131 59.173771-11.725639 34.497049-1.955672 70.731541 25.835017 94.535344l200.821508 166.811279c4.12118 3.491672 6.076852 9.165639 4.775869 14.403147l-61.221771 251.971148c-7.168 26.187541-2.173902 53.264787 13.681312 74.449836 16.283279 21.394885 41.681836 34.27882 68.381377 34.27882 16.501508 0 32.566557-5.027672 45.81141-13.975082l219.488524-137.333508a14.243672 14.243672 0 0 1 14.973902 0l221.670819 136.897049c13.891148 9.383869 29.956197 14.411541 46.239476 14.411541 24.962098 0 49.714361-12.011016 65.77941-32.314754 16.711344-20.96682 22.79659-48.262295 16.711344-75.540984l-61.44-252.625836a14.764066 14.764066 0 0 1 4.784262-14.621377l203.851541-167.247738c27.362623-23.585574 37.124197-59.828459 25.616787-94.325508-11.28918-34.06059-41.463607-57.419541-76.195672-59.383607z m16.711344 112.438558l-203.423475 167.029508a68.263869 68.263869 0 0 0-22.79659 68.775869l61.44 252.180983c3.256656 14.848-2.601967 25.104787-6.513312 29.91423-6.076852 7.638033-15.192131 12.439082-24.315803 12.439082-5.640393 0-11.28918-1.745836-17.366033-5.892197L565.644422 825.12577a67.273443 67.273443 0 0 0-35.386754-10.04695c-12.590164 0-24.970492 3.500066-35.604983 10.26518l-220.361443 137.769967c-14.100984 9.392262-32.994623 5.237508-42.98282-7.856262-4.12118-5.455738-8.468984-14.856393-4.557639-28.604853l61.44-252.835672c6.076852-25.104787-2.82859-51.95541-22.578361-68.33941L65.21898 438.893115c-15.84682-13.748459-11.50741-31.433443-9.769968-36.461115 1.737443-5.019279 8.897049-21.831344 29.737968-22.922492l259.87777-18.776131a67.29023 67.29023 0 0 0 57.528656-41.925246l99.210492-242.570492c8.040918-19.649049 26.053246-21.176656 31.265573-21.176655 5.203934 0 23.233049 1.527607 31.265574 21.176655l99.210492 242.570492a67.29023 67.29023 0 0 0 57.537049 41.925246l260.305836 18.994361c20.396066 1.091148 27.564066 17.903213 29.301508 22.922492 1.309377 4.58282 5.648787 22.276197-9.551737 35.588196z" fill="" /></svg>